<svg xmlns="http://www.w3.org/2000/svg" xmlns:xlink="http://www.w3.org/1999/xlink" viewBox="0 0 67.733 67.733"><g transform="translate(-.398 .746) scale(1.01576)"><rect rx="2.475" ry="2.475" y="1.814" x="9.452" height="63.17" width="48.563" fill="#a07152"/><rect ry=".852" rx=".852" y="5.401" x="13.083" height="56.045" width="41.174" fill="#f9f9f9"/><g stroke-width=".89"><path d="m 33.960902,9.359448 a 13.370907,6.0476193 0 0 0 -13.370759,6.047176 l 26.742036,0 A 13.370907,6.0476193 0 0 0 33.960902,9.359448 Z" fill="#a1a1a1" transform="matrix(1.15234 0 0 1.39145 -5.35 -12.795)"/><path d="M 128.35547,35.375 A 50.535711,22.857144 0 0 0 77.820312,58.230469 l 47.332028,0 A 48.852874,60.49026 82.052709 0 0 147.82422,37.162109 50.535711,22.857144 0 0 0 128.35547,35.375 Z" transform="matrix(.30489 0 0 .36815 -5.35 -12.795)" fill="#b3b3b3"/></g><g id="a" stroke-width="1.591" fill="none" stroke="#b3b3b3" stroke-linecap="round"><path stroke-linejoin="round" d="M20.222 18.785H26.648000000000003V25.211H20.222z" transform="matrix(1.49982 0 0 1.49982 -11.867 -15.11)"/><g fill-rule="evenodd"><path d="M30.157044 20.427904l10.34494 0M30.157044 23.6398l10.34494 0" transform="matrix(1.49982 0 0 1.49982 -11.867 -15.163)"/></g></g><use height="100%" width="100%" transform="translate(0 33.945)" id="b" xlink:href="#a" stroke-width=".895"/><use height="100%" width="100%" transform="translate(0 -16.973)" xlink:href="#b" stroke-width=".895"/><path id="c" d="m 18.668339,17.205205 4.508066,3.893329 6.502847,-9.361143" fill="none" fill-rule="evenodd" stroke="#37cd37" stroke-width="3.58" stroke-linecap="round" stroke-linejoin="round"/><g stroke="#e33e3e" stroke-width="2.121" fill="none" stroke-linecap="round" stroke-linejoin="round"><path d="M18.41709 46.071581l6.841857 7.253396M25.464717 46.277351L18.21132 53.119207" transform="translate(-7.55 -18.32) scale(1.4067)"/></g><use height="100%" width="100%" transform="translate(0 16.983)" xlink:href="#c"/></g></svg>